HIERARCHY
ROOT hip
{
  OFFSET 0 0 0
  CHANNELS 6 Xposition Yposition Zposition Zrotation Yrotation Xrotation
  JOINT abdomen
  {
    OFFSET 0 20.6881 -0.73152
    CHANNELS 3 Zrotation Xrotation Yrotation
    JOINT chest
    {
      OFFSET 0 11.7043 -0.48768
      CHANNELS 3 Zrotation Xrotation Yrotation
      JOINT neck
      {
        OFFSET 0 22.1894 -2.19456
        CHANNELS 3 Zrotation Xrotation Yrotation
        JOINT head
        {
          OFFSET -0.24384 7.07133 1.2192
          CHANNELS 3 Zrotation Xrotation Yrotation
          JOINT leftEye
          {
            OFFSET 4.14528 8.04674 8.04672
            CHANNELS 3 Zrotation Xrotation Yrotation
            End Site
            {
              OFFSET 1 0 0
            }
          }
          JOINT rightEye
          {
            OFFSET -3.6576 8.04674 8.04672
            CHANNELS 3 Zrotation Xrotation Yrotation
            End Site
            {
              OFFSET 1 0 0
            }
          }
        }
      }
      JOINT rCollar
      {
        OFFSET -2.68224 19.2634 -4.8768
        CHANNELS 3 Zrotation Xrotation Yrotation
        JOINT rShldr
        {
          OFFSET -8.77824 -1.95073 1.46304
          CHANNELS 3 Zrotation Xrotation Yrotation
          JOINT rForeArm
          {
            OFFSET -28.1742 -1.7115 0.48768
            CHANNELS 3 Zrotation Xrotation Yrotation
            JOINT rHand
            {
              OFFSET -22.5879 0.773209 7.07136
              CHANNELS 3 Zrotation Xrotation Yrotation
              JOINT rThumb1
              {
                OFFSET -1.2192 -0.487915 3.41376
                CHANNELS 3 Zrotation Xrotation Yrotation
                JOINT rThumb2
                {
                  OFFSET -3.37035 -0.52449 3.41376
                  CHANNELS 3 Zrotation Xrotation Yrotation
                  End Site
                  {
                    OFFSET -1.78271 -1.18214 1.43049
                  }
                }
              }
              JOINT rIndex1
              {
                OFFSET -7.75947 0.938293 5.60832
                CHANNELS 3 Zrotation Xrotation Yrotation
                JOINT rIndex2
                {
                  OFFSET -2.54057 -0.884171 1.56538
                  CHANNELS 3 Zrotation Xrotation Yrotation
                  End Site
                  {
                    OFFSET -1.62519 -0.234802 1.16502
                  }
                }
              }
              JOINT rMid1
              {
                OFFSET -8.24714 1.18213 3.41376
                CHANNELS 3 Zrotation Xrotation Yrotation
                JOINT rMid2
                {
                  OFFSET -3.10165 -0.590103 1.0647
                  CHANNELS 3 Zrotation Xrotation Yrotation
                  End Site
                  {
                    OFFSET -2.48547 -0.328903 0.83742
                  }
                }
              }
              JOINT rRing1
              {
                OFFSET -8.82822 0.546677 1.51678
                CHANNELS 3 Zrotation Xrotation Yrotation
                JOINT rRing2
                {
                  OFFSET -2.60934 -0.819778 -0.0198488
                  CHANNELS 3 Zrotation Xrotation Yrotation
                  End Site
                  {
                    OFFSET -2.33842 -0.294052 0.168128
                  }
                }
              }
              JOINT rPinky1
              {
                OFFSET -8.27202 -0.0477905 -0.4584
                CHANNELS 3 Zrotation Xrotation Yrotation
                JOINT rPinky2
                {
                  OFFSET -1.82734 -0.647385 -0.700984
                  CHANNELS 3 Zrotation Xrotation Yrotation
                  End Site
                  {
                    OFFSET -1.69225 -0.51767 -0.607171
                  }
                }
              }
            }
          }
        }
      }
      JOINT lCollar
      {
        OFFSET 2.68224 19.2634 -4.8768
        CHANNELS 3 Zrotation Xrotation Yrotation
        JOINT lShldr
        {
          OFFSET 8.77824 -1.95073 1.46304
          CHANNELS 3 Zrotation Xrotation Yrotation
          JOINT lForeArm
          {
            OFFSET 28.1742 -1.7115 0.48768
            CHANNELS 3 Zrotation Xrotation Yrotation
            JOINT lHand
            {
              OFFSET 22.5879 0.773209 7.07136
              CHANNELS 3 Zrotation Xrotation Yrotation
              JOINT lThumb1
              {
                OFFSET 1.2192 -0.487915 3.41376
                CHANNELS 3 Zrotation Xrotation Yrotation
                JOINT lThumb2
                {
                  OFFSET 3.37035 -0.52449 3.41376
                  CHANNELS 3 Zrotation Xrotation Yrotation
                  End Site
                  {
                    OFFSET 1.78271 -1.18214 1.43049
                  }
                }
              }
              JOINT lIndex1
              {
                OFFSET 7.75947 0.938293 5.60832
                CHANNELS 3 Zrotation Xrotation Yrotation
                JOINT lIndex2
                {
                  OFFSET 2.54057 -0.884171 1.56538
                  CHANNELS 3 Zrotation Xrotation Yrotation
                  End Site
                  {
                    OFFSET 1.62519 -0.234802 1.16502
                  }
                }
              }
              JOINT lMid1
              {
                OFFSET 8.24714 1.18213 3.41376
                CHANNELS 3 Zrotation Xrotation Yrotation
                JOINT lMid2
                {
                  OFFSET 3.10165 -0.590103 1.0647
                  CHANNELS 3 Zrotation Xrotation Yrotation
                  End Site
                  {
                    OFFSET 2.48547 -0.328903 0.83742
                  }
                }
              }
              JOINT lRing1
              {
                OFFSET 8.82822 0.546677 1.51678
                CHANNELS 3 Zrotation Xrotation Yrotation
                JOINT lRing2
                {
                  OFFSET 2.60934 -0.819778 -0.0198488
                  CHANNELS 3 Zrotation Xrotation Yrotation
                  End Site
                  {
                    OFFSET 2.33842 -0.294052 0.168128
                  }
                }
              }
              JOINT lPinky1
              {
                OFFSET 8.27202 -0.0477905 -0.4584
                CHANNELS 3 Zrotation Xrotation Yrotation
                JOINT lPinky2
                {
                  OFFSET 1.82734 -0.647385 -0.700984
                  CHANNELS 3 Zrotation Xrotation Yrotation
                  End Site
                  {
                    OFFSET 1.69225 -0.51767 -0.607171
                  }
                }
              }
            }
          }
        }
      }
    }
  }
  JOINT rButtock
  {
    OFFSET -8.77824 4.35084 1.2192
    CHANNELS 3 Zrotation Xrotation Yrotation
    JOINT rThigh
    {
      OFFSET 0 -1.70687 -2.19456
      CHANNELS 3 Zrotation Xrotation Yrotation
      JOINT rShin
      {
        OFFSET 0 -36.8199 0.73152
        CHANNELS 3 Zrotation Xrotation Yrotation
        JOINT rFoot
        {
          OFFSET 0.73152 -45.1104 -5.12064
          CHANNELS 3 Zrotation Xrotation Yrotation
          End Site
          {
            OFFSET -1.1221 -3.69964 12.103
          }
        }
      }
    }
  }
  JOINT lButtock
  {
    OFFSET 8.77824 4.35084 1.2192
    CHANNELS 3 Zrotation Xrotation Yrotation
    JOINT lThigh
    {
      OFFSET 0 -1.70687 -2.19456
      CHANNELS 3 Zrotation Xrotation Yrotation
      JOINT lShin
      {
        OFFSET 0 -36.8199 0.73152
        CHANNELS 3 Zrotation Xrotation Yrotation
        JOINT lFoot
        {
          OFFSET -0.73152 -45.1104 -5.12064
          CHANNELS 3 Zrotation Xrotation Yrotation
          End Site
          {
            OFFSET 1.1221 -3.69964 12.103
          }
        }
      }
    }
  }
}
MOTION
Frames:	4
Frame Time:	0.00833333
53.0056 85.1388 191.75 0.0 0.0 0.0 0.41059 -0.00336425 0.0117806 0.113459 -0.00539522 0.0196594 -3.14931e-15 7.95139e-16 -6.21201e-18 -9.46712e-15 9.54166e-15 -2.95071e-17 -0.0 0.0 0.0 -0.0 0.0 0.0 -1.49223e-15 5.82377e-18 9.93923e-17 -3.10487e-14 1.2424e-17 7.95139e-16 -5.62113e-13 1.71154e-13 -9.54166e-15 -6.47171e-12 -1.58456e-13 -9.54166e-15 -1.526e-11 2.95786e-14 -1.27222e-14 -2.63604e-11 5.725e-14 -3.4191e-14 -1.52543e-11 2.98177e-14 -3.18055e-14 7.73091 5.47488 0.417314 -1.52606e-11 2.92213e-14 -1.59028e-14 2.90554 0.965183 0.102902 -1.52536e-11 2.97183e-14 -1.74931e-14 10.2786 0.731801 0.0259123 -1.52667e-11 3.02153e-14 -6.36111e-15 2.22167 -0.733487 -0.20892 -1.58904e-15 6.21202e-18 -9.93923e-17 -3.41758e-14 -1.98785e-16 -1.19271e-15 -5.68027e-13 -1.66582e-13 9.54166e-15 -6.46281e-12 1.7918e-13 -6.36111e-15 -1.52499e-11 2.92971e-14 -1.59028e-14 -2.63247e-11 5.40694e-14 -2.38542e-14 -1.52539e-11 3.02153e-14 -9.54166e-15 -7.73091 5.47488 -0.417314 -1.52491e-11 2.89232e-14 -1.59028e-14 -2.90554 0.965183 -0.102902 -1.52579e-11 2.97183e-14 -1.66979e-14 -10.2786 0.731801 -0.0259123 -1.52446e-11 3.10104e-14 -2.54444e-14 -2.22167 -0.733487 0.20892 -2.03217e-16 0.0 -3.88251e-19 0.770597 -4.17183 -0.0656813 -0.00265482 2.00555 -0.0182698 -0.461821 2.16687 0.0960998 2.03217e-16 0.0 3.88251e-19 -0.143243 -2.55995 0.0260686 0.00716326 -0.914091 0.0621724 0.453782 3.47457 -0.121226
53.4823 83.4203 185.961 179.04 -0.6739 -153.773 -1.10558 -9.01838 -0.66484 0.668141 3.82318 -0.289409 -0.318201 4.51787 -1.05736 2.31134 -12.718 -0.956634 -0.0 0.0 0.0 -0.0 0.0 0.0 -8.46321e-15 -5.7282e-14 -7.35464e-15 23.1137 3.03928 1.98985 -2.9203 -1.14351 4.74106 0.00690342 1.84319 0.258559 -1.28143e-10 -2.02061e-11 3.82091e-11 -2.21211e-10 -3.47446e-11 6.5368e-11 -1.2814e-10 -2.02045e-11 3.81915e-11 7.73091 5.47488 0.417314 -1.28145e-10 -2.02048e-11 3.82078e-11 2.90554 0.965183 0.102902 -1.28136e-10 -2.02054e-11 3.82057e-11 10.2786 0.731801 0.0259123 -1.28149e-10 -2.0205e-11 3.82145e-11 2.22167 -0.733487 -0.20892 -8.53964e-15 -5.72839e-14 -7.57711e-15 -21.575 8.58357 -2.76831 2.20547 -0.784684 -3.64476 -0.012562 2.48658 -0.348278 5.04443e-11 -2.378e-11 -9.05047e-11 8.55244e-11 -4.17242e-11 -1.5583e-10 5.04423e-11 -2.37795e-11 -9.04966e-11 -7.73091 5.47488 -0.417314 5.04463e-11 -2.378e-11 -9.05036e-11 -2.90554 0.965183 -0.102902 5.0437e-11 -2.37794e-11 -9.05056e-11 -10.2786 0.731801 -0.0259123 5.04497e-11 -2.37781e-11 -9.05133e-11 -2.22167 -0.733487 0.20892 -2.03217e-16 0.0 -3.88251e-19 0.652732 -10.9716 2.21275 0.00117488 4.38283 0.0516305 -0.704727 -3.08852 -2.41191 2.03217e-16 0.0 3.88251e-19 -0.0727488 -9.31186 -2.04889 0.00355385 1.4685 0.018256 0.502062 1.1658 1.01647
53.4804 83.422 185.949 179.03 -0.6432 -153.832 -2.95091 -18.541 -1.44055 1.29946 7.87005 -0.621274 -0.471517 9.28866 -2.198 4.24536 -26.1526 -2.13983 -0.0 0.0 0.0 -0.0 0.0 0.0 -1.64482e-14 -1.22944e-13 -1.62165e-14 47.3167 6.24025 4.111 -5.80303 -2.32658 9.75999 -0.0039235 3.7917 0.532801 -2.53769e-10 -5.23574e-11 9.59619e-11 -4.37955e-10 -9.01799e-11 1.64418e-10 -2.53767e-10 -5.23542e-11 9.59458e-11 7.73091 5.47488 0.417314 -2.53772e-10 -5.23542e-11 9.59627e-11 2.90554 0.965183 0.102902 -2.53762e-10 -5.23561e-11 9.59598e-11 10.2786 0.731801 0.0259123 -2.53774e-10 -5.23559e-11 9.59661e-11 2.22167 -0.733487 -0.20892 -1.65014e-14 -1.22948e-13 -1.64619e-14 -43.4429 17.5901 -5.90703 4.42869 -1.60364 -7.50005 0.00714972 5.11577 -0.71876 1.35233e-10 -4.93504e-11 -1.98864e-10 2.30088e-10 -8.67053e-11 -3.42523e-10 1.35234e-10 -4.93504e-11 -1.98854e-10 -7.73091 5.47488 -0.417314 1.35237e-10 -4.935e-11 -1.98862e-10 -2.90554 0.965183 -0.102902 1.35226e-10 -4.93496e-11 -1.98865e-10 -10.2786 0.731801 -0.0259123 1.35239e-10 -4.93482e-11 -1.98872e-10 -2.22167 -0.733487 0.20892 -2.03217e-16 0.0 -3.88251e-19 1.14399 -18.114 4.78081 -0.0012531 6.89272 0.126107 -1.46746 -8.61376 -5.12231 2.03217e-16 0.0 3.88251e-19 -0.551425 -16.4138 -4.36896 0.00365283 3.98594 -0.0282209 0.653059 -1.27189 2.22216
53.4834 83.4182 185.972 179.044 -0.6313 -153.727 -4.84286 -27.0325 -2.23804 1.90354 11.479 -0.924098 -0.442484 13.5349 -3.25264 5.36811 -38.1054 -3.55858 -0.0 0.0 0.0 -0.0 0.0 0.0 -2.24052e-14 -1.71858e-13 -2.22627e-14 68.7022 9.07357 6.03696 -8.19884 -3.33669 14.245 -0.0293935 5.52912 0.778901 -3.5391e-10 -6.06774e-11 1.14653e-10 -6.10912e-10 -1.04348e-10 1.96172e-10 -3.5391e-10 -6.06731e-11 1.14638e-10 7.73091 5.47488 0.417314 -3.53914e-10 -6.06727e-11 1.14655e-10 2.90554 0.965183 0.102902 -3.53902e-10 -6.06757e-11 1.14652e-10 10.2786 0.731801 0.0259123 -3.53914e-10 -6.06754e-11 1.14656e-10 2.22167 -0.733487 -0.20892 -2.24408e-14 -1.71864e-13 -2.25326e-14 -62.019 25.4969 -9.10507 6.31872 -2.31598 -10.9423 0.0536568 7.45863 -1.05276 1.81833e-10 -7.13985e-11 -2.71482e-10 3.09222e-10 -1.25281e-10 -4.67442e-10 1.81835e-10 -7.13989e-11 -2.71471e-10 -7.73091 5.47488 -0.417314 1.81837e-10 -7.13979e-11 -2.71479e-10 -2.90554 0.965183 -0.102902 1.81827e-10 -7.13977e-11 -2.71483e-10 -10.2786 0.731801 -0.0259123 1.81838e-10 -7.13962e-11 -2.71489e-10 -2.22167 -0.733487 0.20892 -2.03217e-16 0.0 -3.88251e-19 2.17671 -24.4188 7.30435 -0.00876411 9.13736 0.19341 -2.59759 -13.4915 -7.62901 2.03217e-16 0.0 3.88251e-19 -1.50365 -22.6959 -6.63342 0.00732234 6.23367 -0.0699928 0.873715 -3.44553 3.29675
